<svg xmlns="http://www.w3.org/2000/svg" viewBox="0 0 100 100">
  <defs>
    <linearGradient id="grad" x1="0%" y1="0%" x2="100%" y2="100%">
      <stop offset="0%" style="stop-color:#7b2ff7;stop-opacity:1" />
      <stop offset="100%" style="stop-color:#0df;stop-opacity:1" />
    </linearGradient>
  </defs>
  <circle cx="50" cy="50" r="46" fill="#141416" stroke="url(#grad)" stroke-width="4"/>
  <!-- Soundwave / Microphone symbol -->
  <path d="M50 25 C44 25, 44 38, 44 42 L44 54 C44 58, 50 61, 50 61 C50 61, 56 58, 56 54 L56 42 C56 38, 56 25, 50 25 Z" fill="url(#grad)"/>
  <path d="M35 48 L35 54 C35 62, 47 66, 50 66 C53 66, 65 62, 65 54 L65 48" fill="none" stroke="url(#grad)" stroke-width="4" stroke-linecap="round"/>
  <line x1="50" y1="66" x2="50" y2="78" stroke="url(#grad)" stroke-width="4" stroke-linecap="round"/>
  <line x1="38" y1="78" x2="62" y2="78" stroke="url(#grad)" stroke-width="4" stroke-linecap="round"/>
</svg>
